<?xml version="1.0" standalone="no"?>
<svg data-noselect=""
    viewBox="115.44511368708004 73.76534696901996 572 428.97952226316005"
    width="572"
    height="428.97952226316005"
    ref="svg_canvas"
    preserveAspectRatio="none"
    version="1.1" xmlns="http://www.w3.org/2000/svg"
    style="background-color: transparent;">
    <g id="shape_2gbSr3wkw4" class="icon"  ref="shape_2gbSr3wkw4" key="shape_2gbSr3wkw4" transform="translate(327.035590697863,153.76534696901996) rotate(0,87.17623417762,87.17623417762) scale(1,1)" style="cursor:move;display:inline;opacity:1;" filter="">
        <g style="display:inline">
            <rect fill="rgba(0,0,0,0)" width="168.8190459784341" height="200" x="-10" y="-10"></rect>
            <svg version="1.1" id="图层_1" xmlns="http://www.w3.org/2000/svg" xmlns:xlink="http://www.w3.org/1999/xlink" x="0px" y="0px" viewBox="0 -9.5367431640625e-7 98.5 115.4000015258789" enable-background="new 0 0 98.5 115.4" xml:space="preserve" width="300" height="300" class="style-removed" preserveAspectRatio="none" data-parent="shape_2gbSr3wkw4">
            <path fill="#fb5c69" d="M71.7,50.1l-17-5.5c-12-3.9-19.7-6.9-19.8-11.8c-0.1-5.9,7.1-7.2,15.4-6.2c12.5,1.4,28.5,7,43.9,17.9
                l0.1-12.1c-3.5-1.5-7.3-3-11.3-4.6c-1.8,1.3-4,2.1-6.3,2.1c-4.9,0-9-3.4-10.2-8c-12.7-3.6-21.8-4-28.3-3c-0.4,5.5-4.9,9.8-10.5,9.8
                c-5.8,0-10.5-4.7-10.5-10.5c0-5.8,4.7-10.5,10.5-10.5c2.2,0,4.3,0.7,6,1.9h0c8.3-1.9,19.7-1.8,35.3,2.6c1.9-2.1,4.7-3.4,7.7-3.4
                c5.5,0,10.1,4.3,10.5,9.8c2.6,1,5,2,7.3,3l0.1-6.9C82.6,4.9,66,0,50.3,0C21.5,0,1.1,14.9,1.1,33.6c0,16.1,13.4,25.5,27.5,30.5
                C45,69.9,65.1,74.2,65.1,82.6c0,5-8,6.5-17.7,5.4C35.2,86.6,15.7,81.1,0,68.1v32.4c14,10.6,29,14.9,46.7,14.9
                c32.8,0,51.8-16.3,51.8-34.8C98.5,62.7,88.5,55.6,71.7,50.1z M86.5,90.9c-5,10.5-19.1,17.3-37,17.3c-0.8,0-1.6,0-2.4,0
                c-8.7-0.3-16.4-2.5-23.4-4.9c-1.7,1.2-3.7,1.8-5.9,1.8c-5.8,0-10.5-4.7-10.5-10.5S12,84.1,17.8,84.1c5.7,0,10.3,4.5,10.5,10.1
                c6,2,12.2,3.7,19.2,3.9c13.4,0.4,23-3.3,27.7-8.3c-2.4-1.9-4-4.9-4-8.2c0-3,1.2-5.7,3.2-7.6c-3.9-3.9-10.8-7.8-21.8-10.4
                c-3.6-0.9-6.9-1.7-10-2.7c-1.7,1.2-3.8,1.9-6.1,1.9c-5.8,0-10.5-4.7-10.5-10.5c0-5.8,4.7-10.5,10.5-10.5c5.6,0,10.2,4.4,10.5,9.9
                c2.4,0.7,5,1.4,7.9,2.1c16.5,3.9,25.9,10.7,30.3,17.8c4,1.5,6.9,5.3,6.9,9.9C92.2,85.6,89.9,89.2,86.5,90.9z"></path>
            </svg>
        </g>
    </g>
</svg>